<svg height="512pt" viewBox="-1 0 512 512" width="512pt" xmlns="http://www.w3.org/2000/svg"><path d="m509.714844 240.46875c0-9.464844-8.679688-16.570312-17.953125-14.707031l-12.066407 2.421875c-6.238281-125.945313-109.945312-228.183594-239.695312-228.183594-132.660156 0-240 107.5625-240 240.46875 0 135.378906 111.40625 244.480469 247.390625 240.351562 10.214844 18.566407 29.964844 31.179688 52.609375 31.179688 33.085938 0 60-26.914062 60-60 0-38.03125.007812 21.019531.007812-109.054688l119.707032-23.992187v42.796875h-29.714844c-32.6875 0-60 26.449219-60 60.1875 0 33.085938 26.914062 60 60 60s60-26.914062 60-60c0-18.589844-.285156-162.886719-.285156-181.46875zm-269.691406 210.464844c-115.890626 0-210.023438-94.476563-210.023438-210.464844 0-116.054688 94.207031-210.46875 210-210.46875 114.371094 0 206.636719 91.148438 209.898438 204.167969l-107.84375 21.65625c-7.007813 1.40625-12.046876 7.558593-12.046876 14.707031v121.28125h-30.007812c-32.789062 0-59.503906 26.445312-59.976562 59.121094zm89.976562 1.066406c0 16.542969-13.457031 30-30 30-16.25 0-30-13.09375-30-30.1875 0-16.542969 13.457031-30 30-30h30zm30.007812-139.652344v-29.53125l119.707032-24.039062v29.582031zm89.992188 139.589844c-16.542969 0-30-13.457031-30-30 0-17.097656 13.753906-30.1875 30-30.1875h29.714844c0 31.046875.285156 4.6875.285156 30.1875 0 16.542969-13.457031 30-30 30zm0 0"/><path d="m240 180.375c-32.679688 0-60 26.4375-60 60.1875 0 33.082031 26.914062 60 60 60s60-26.917969 60-60c0-33.820312-27.386719-60.1875-60-60.1875zm0 90.1875c-16.542969 0-30-13.457031-30-30 0-17.097656 13.753906-30.1875 30-30.1875 16.542969 0 30 13.457031 30 30 0 17.097656-13.753906 30.1875-30 30.1875zm0 0"/></svg>